<svg width="36" height="36" viewBox="0 0 36 36" fill="none" xmlns="http://www.w3.org/2000/svg">
<path d="M29.0856 35.3845C29.0732 35.3845 29.0609 35.3845 29.0485 35.3845C23.11 35.19 16.1529 29.4336 11.3595 24.6371C6.55989 19.8407 0.803488 12.8805 0.618288 6.9698C0.550388 4.8956 5.64019 1.2072 5.69259 1.1701C7.01369 0.250395 8.47979 0.577496 9.08169 1.4109C9.48909 1.9757 13.3473 7.8216 13.767 8.4853C14.2022 9.1736 14.1374 10.1983 13.5942 11.2261C13.2948 11.7971 12.3009 13.5441 11.8349 14.359C12.338 15.075 13.6683 16.8313 16.4153 19.5783C19.1654 22.3253 20.9186 23.6587 21.6377 24.1618C22.4526 23.6957 24.1996 22.7019 24.7706 22.4025C25.7829 21.8654 26.8015 21.7975 27.496 22.2235C28.2059 22.6587 34.0364 26.5354 34.5734 26.9088C35.0241 27.2268 35.3142 27.77 35.3728 28.4027C35.4284 29.0416 35.2309 29.7176 34.8204 30.3071C34.7864 30.3565 31.1412 35.3845 29.0856 35.3845Z" fill="#0075FF"/>
</svg>
